<svg width="18" height="18" viewBox="0 0 15 17" fill="none" xmlns="http://www.w3.org/2000/svg">
<path d="M14.0621 6.08571C13.9857 6.13028 12.1671 7.07081 12.1671 9.15618C12.2528 11.5344 14.4621 12.3684 14.5 12.3684C14.4621 12.413 14.1665 13.5046 13.2907 14.6489C12.5956 15.6345 11.8242 16.6283 10.6528 16.6283C9.5385 16.6283 9.1385 15.9714 7.85278 15.9714C6.47203 15.9714 6.08135 16.6283 5.0242 16.6283C3.85277 16.6283 3.02419 15.5813 2.29127 14.6049C1.3391 13.3269 0.529778 11.3214 0.501206 9.3958C0.481952 8.3754 0.69189 7.37236 1.22481 6.52038C1.97699 5.33097 3.31985 4.52357 4.78631 4.49694C5.90992 4.46164 6.90992 5.2158 7.59563 5.2158C8.25278 5.2158 9.48135 4.49694 10.8714 4.49694C11.4714 4.49752 13.0714 4.66595 14.0621 6.08571ZM7.5006 4.29321C7.3006 3.36136 7.85278 2.42951 8.36706 1.8351C9.02421 1.11624 10.0621 0.628326 10.9571 0.628326C11.0143 1.56017 10.6522 2.47408 10.005 3.13968C9.42421 3.85854 8.42421 4.39971 7.5006 4.29321Z" fill="#2C3142"/>
</svg>
