<svg width="65" height="51" viewBox="0 0 65 51" fill="none" xmlns="http://www.w3.org/2000/svg">
<path d="M0.5 10.1289V48.6089C0.5 49.8667 1.77 50.7267 2.93778 50.26L18.2778 43.2778V0.611113L2.73556 6.82778C2.07575 7.09168 1.51015 7.5472 1.11168 8.1356C0.71321 8.72399 0.500158 9.41827 0.5 10.1289ZM21.8333 43.2778L43.1667 50.3889V7.72222L21.8333 0.611113V43.2778ZM62.0622 0.740001L46.7222 7.72222V50.3889L62.2644 44.1722C62.9243 43.9084 63.49 43.453 63.8885 42.8645C64.287 42.2761 64.5 41.5818 64.5 40.8711V2.39111C64.5 1.13333 63.23 0.273335 62.0622 0.740001Z" fill="url(#paint0_linear_518_1068)"/>
<defs>
<linearGradient id="paint0_linear_518_1068" x1="0.5" y1="25.5" x2="64.5" y2="25.5" gradientUnits="userSpaceOnUse">
<stop stop-color="#7683AF"/>
<stop offset="1" stop-color="#B7C2E8"/>
</linearGradient>
</defs>
</svg>
