<svg width="17" height="12" viewBox="0 0 17 12" fill="none" xmlns="http://www.w3.org/2000/svg">
<path d="M1.49414 0.0481415H15.5059C16.3297 0.0481415 17 0.718413 17 1.54228V10.2011C17 11.0249 16.3297 11.6952 15.5059 11.6952H1.49414C0.670271 11.6952 0 11.0249 0 10.2011V1.54228C0 0.718413 0.670271 0.0481415 1.49414 0.0481415ZM1.68914 1.04424L1.88856 1.21028L7.90719 6.222C8.25071 6.50801 8.74936 6.50801 9.09281 6.222L15.1114 1.21028L15.3109 1.04424H1.68914ZM16.0039 1.76335L11.1001 5.84677L16.0039 9.1104V1.76335ZM1.49414 10.6991H15.5059C15.7465 10.6991 15.9478 10.5275 15.9939 10.3003L10.3014 6.51179L9.73018 6.98746C9.37377 7.28423 8.93685 7.43262 8.49997 7.43262C8.06308 7.43262 7.62619 7.28423 7.26976 6.98746L6.69853 6.51179L1.00605 10.3003C1.05221 10.5275 1.25348 10.6991 1.49414 10.6991ZM0.996094 9.1104L5.89993 5.8468L0.996094 1.76335V9.1104Z" fill="#303545"/>
</svg>
