<svg width="33" height="33" viewBox="0 0 33 33" fill="none" xmlns="http://www.w3.org/2000/svg">
<path fill-rule="evenodd" clip-rule="evenodd" d="M0.5 16.6283C0.5 7.79177 7.66344 0.628326 16.5 0.628326C25.3366 0.628326 32.5 7.79177 32.5 16.6283C32.5 25.4649 25.3366 32.6283 16.5 32.6283C7.66344 32.6283 0.5 25.4649 0.5 16.6283ZM16.5 8.62833C20.9 8.62833 24.5 12.2283 24.5 16.6283C24.5 20.6283 21.6 24.0283 17.6 24.6283V18.9283H19.5L19.9 16.6283H17.7V15.1283C17.7 14.5283 18 13.9283 19 13.9283H20V11.9283C20 11.9283 19.1 11.7283 18.2 11.7283C16.4 11.7283 15.2 12.8283 15.2 14.8283V16.6283H13.2V18.9283H15.2V24.5283C11.4 23.9283 8.5 20.6283 8.5 16.6283C8.5 12.2283 12.1 8.62833 16.5 8.62833Z" fill="#B7C2E8"/>
</svg>
