<svg width="65" height="48" viewBox="0 0 65 48" fill="none" xmlns="http://www.w3.org/2000/svg">
<path d="M62.8991 41.6H2.10025C1.21627 41.6 0.500284 42.316 0.500284 43.2V46.3999C0.500284 47.2839 1.21627 47.9999 2.10025 47.9999H62.8991C63.7831 47.9999 64.4991 47.2839 64.4991 46.3999V43.2C64.4991 42.316 63.7831 41.6 62.8991 41.6ZM8.55513 30.9272C9.18312 31.6112 10.0651 31.9992 10.9881 31.9982L24.0418 31.9802C25.072 31.9788 26.0874 31.7349 27.0058 31.2682L56.1012 16.5035C58.7752 15.1465 61.1721 13.2096 62.8031 10.6726C64.6341 7.82466 64.8331 5.7637 64.1101 4.30773C63.3891 2.85076 61.6361 1.78078 58.2852 1.56278C55.3002 1.36879 52.3313 2.15477 49.6573 3.51075L39.8065 8.50965L17.937 0.303807C17.674 0.126668 17.3685 0.0229809 17.0521 0.00346664C16.7356 -0.0160476 16.4197 0.0493192 16.137 0.192809L9.56211 3.52975C8.49513 4.07074 8.23714 5.49471 9.04512 6.38269L24.6668 16.1925L14.346 21.4304L7.11116 17.7835C6.8619 17.6578 6.58658 17.5925 6.30744 17.5929C6.02829 17.5932 5.75313 17.6592 5.50419 17.7855L1.49127 19.8224C0.447285 20.3524 0.172291 21.7344 0.934276 22.6304L8.55513 30.9272Z" fill="url(#paint0_linear_518_1066)"/>
<defs>
<linearGradient id="paint0_linear_518_1066" x1="0.5" y1="24" x2="64.5" y2="24" gradientUnits="userSpaceOnUse">
<stop stop-color="#7683AF"/>
<stop offset="1" stop-color="#B7C2E8"/>
</linearGradient>
</defs>
</svg>
