<svg width="40" height="40" viewBox="0 0 93 99" fill="none" xmlns="http://www.w3.org/2000/svg">
<path d="M8.59648 32.2588C7.88299 31.9633 7.33769 31.3657 7.1091 30.6277C6.88051 29.8906 6.99073 29.0897 7.41196 28.4424C10.8602 22.9085 15.4449 18.1695 20.8611 14.5393C26.2784 10.909 32.4042 8.47058 38.8338 7.3849C39.7163 7.23551 40.6126 7.55062 41.2077 8.21921C41.8028 8.88779 42.0118 9.81516 41.7619 10.6748L38.3072 24.329C38.0574 25.3135 38.2762 26.3576 38.8991 27.1593L55.3501 48.0849H55.3509C55.942 48.8351 56.831 49.2914 57.7852 49.3347L66.7021 49.7951L67.4262 59.6654L54.9231 66.9375C54.3966 67.2477 53.9672 67.6983 53.6822 68.2387C53.3973 68.7791 53.2684 69.3881 53.3108 69.9971L55.2186 95.5622C55.3003 96.9353 54.3108 98.1394 52.9484 98.3264L51.27 98.4913L51.2708 98.4905C50.568 98.5738 49.8626 98.3632 49.3206 97.9084C48.7786 97.4537 48.4487 96.795 48.4079 96.0888L47.9802 88.0275C47.9328 87.3376 47.6683 86.6797 47.2258 86.1482C46.7826 85.6168 46.1834 85.238 45.5123 85.0666L36.6288 82.8624C35.9586 82.691 35.2508 82.7351 34.6067 82.9889C33.9627 83.2428 33.4157 83.6935 33.0426 84.2771L27.7781 92.2725C27.0842 93.386 25.6483 93.7737 24.4883 93.1607C23.8344 92.8366 23.3495 92.2496 23.1544 91.5459C22.9601 90.843 23.0744 90.0895 23.4678 89.4757L31.7595 76.5122C32.2297 75.7783 32.3897 74.8893 32.2044 74.0378C32.0199 73.1863 31.5048 72.4435 30.7725 71.9716L25.7381 68.6818L24.4548 62.8254L34.5228 59.7985L34.5237 59.7977C35.4918 59.4989 36.269 58.7707 36.629 57.8238C36.9947 56.8841 36.9098 55.8294 36.3987 54.9609L27.9756 40.8128C27.5658 40.2545 26.9903 39.8406 26.3307 39.6283L8.59648 32.2588ZM36.2681 97.7022C37.1563 97.8998 38.0445 98.0973 38.9335 98.2288C39.6886 98.339 40.4535 98.103 41.016 97.5863C41.5776 97.0687 41.8764 96.3259 41.8282 95.5634L41.598 90.9568L37.1563 89.8049L34.6232 93.7863V93.7871C34.1758 94.503 34.104 95.392 34.4313 96.1707C34.7579 96.9495 35.4436 97.5202 36.2681 97.7022ZM18.3028 85.2326L24.3903 75.8218L21.1004 73.6502H21.0996C20.3731 73.1669 19.8555 72.4265 19.6522 71.5775L17.4481 61.4108C17.2717 60.601 17.4081 59.7553 17.8293 59.041C18.2497 58.3275 18.924 57.7993 19.7183 57.5609L28.6679 54.8629L22.8107 45.1901L5.76696 38.2144C5.12613 37.9728 4.41508 38.0005 3.79548 38.292C3.17505 38.5834 2.69994 39.1132 2.47708 39.7606C0.0664474 47.7657 -0.107427 56.2785 1.97504 64.3747C4.05671 72.4712 8.31562 79.8438 14.2888 85.6932C14.8488 86.2426 15.6268 86.5096 16.4056 86.4206C17.1852 86.3308 17.8824 85.8941 18.3028 85.2328L18.3028 85.2326ZM74.2374 16.1381H74.2382C73.0741 17.6508 71.497 18.7937 69.697 19.428V25.3506C69.697 26.5261 69.0701 27.6118 68.0521 28.1997C67.0341 28.7876 65.7802 28.7874 64.7622 28.1997C63.7443 27.6119 63.1173 26.5262 63.1173 25.3506V19.2965C61.1663 18.6451 59.4674 17.401 58.2584 15.7373C57.0486 14.0744 56.3898 12.0744 56.3719 10.018C56.3653 9.30946 56.4429 8.60251 56.6021 7.9119C54.9873 7.52576 53.3499 7.24006 51.6999 7.05636C50.4166 6.93881 49.2402 7.77882 48.9357 9.03109L45.0866 24.3636L59.4649 42.9208L69.8293 43.4474C70.6236 43.4923 71.3747 43.8237 71.9428 44.3804C72.5118 44.9372 72.8595 45.6809 72.9216 46.4745L74.0073 61.1491C74.053 61.7549 73.929 62.3614 73.6506 62.9018C73.3714 63.4422 72.9485 63.8945 72.4285 64.2088L60.0242 71.546L61.6039 92.6702V92.6693C61.6643 93.5135 62.1361 94.2735 62.8668 94.7004C63.5966 95.1282 64.4905 95.1682 65.2554 94.8082C75.0786 90.4285 83.059 82.7492 87.8132 73.101C92.5676 63.4543 93.7971 52.4475 91.2876 41.9895C88.7781 31.5313 82.6883 22.2804 74.0733 15.8414L74.2374 16.1381ZM66.2421 0.146667C63.9907 0.147484 61.8068 0.918113 60.0535 2.33035C58.3008 3.74262 57.0827 5.71255 56.6019 7.91169C62.9391 9.30764 68.8993 12.0571 74.0734 15.9731C75.4008 14.2718 76.1192 12.1754 76.1134 10.0178C76.1134 7.39989 75.0734 4.88957 73.2219 3.03817C71.3713 1.1867 68.8601 0.146667 66.2421 0.146667Z" fill="#B7C2E8"/>
</svg>
