<svg width="17" height="17" viewBox="0 0 17 17" fill="none" xmlns="http://www.w3.org/2000/svg">
<g clip-path="url(#clip0_127_415)">
<mask id="path-1-inside-1_127_415" fill="white">
<path d="M16.2452 8.9014C16.2452 8.25651 16.1918 7.78592 16.0763 7.2979H8.56201V10.2086H12.9727C12.8838 10.9319 12.4036 12.0213 11.3365 12.7533L11.3215 12.8507L13.6974 14.6545L13.862 14.6706C15.3737 13.3023 16.2452 11.2892 16.2452 8.9014Z"/>
</mask>
<path d="M16.2452 8.9014C16.2452 8.25651 16.1918 7.78592 16.0763 7.2979H8.56201V10.2086H12.9727C12.8838 10.9319 12.4036 12.0213 11.3365 12.7533L11.3215 12.8507L13.6974 14.6545L13.862 14.6706C15.3737 13.3023 16.2452 11.2892 16.2452 8.9014Z" fill="#2C3142"/>
<path d="M16.0763 7.2979L16.5628 7.18269L16.4717 6.7979H16.0763V7.2979ZM8.56201 7.2979V6.7979H8.06201V7.2979H8.56201ZM8.56201 10.2086H8.06201V10.7086H8.56201V10.2086ZM12.9727 10.2086L13.469 10.2696L13.5379 9.70859H12.9727V10.2086ZM11.3365 12.7533L11.0536 12.341L10.8751 12.4634L10.8423 12.6774L11.3365 12.7533ZM11.3215 12.8507L10.8273 12.7749L10.7822 13.069L11.0192 13.249L11.3215 12.8507ZM13.6974 14.6545L13.395 15.0527L13.5078 15.1383L13.6487 15.1521L13.6974 14.6545ZM13.862 14.6706L13.8133 15.1682L14.0335 15.1897L14.1975 15.0413L13.862 14.6706ZM16.7452 8.9014C16.7452 8.22432 16.6887 7.71438 16.5628 7.18269L15.5897 7.41311C15.6949 7.85745 15.7452 8.2887 15.7452 8.9014H16.7452ZM16.0763 6.7979H8.56201V7.7979H16.0763V6.7979ZM8.06201 7.2979V10.2086H9.06201V7.2979H8.06201ZM8.56201 10.7086H12.9727V9.70859H8.56201V10.7086ZM12.4764 10.1476C12.4033 10.7424 11.9916 11.6976 11.0536 12.341L11.6193 13.1656C12.8156 12.345 13.3643 11.1215 13.469 10.2696L12.4764 10.1476ZM10.8423 12.6774L10.8273 12.7749L11.8157 12.9266L11.8307 12.8291L10.8423 12.6774ZM11.0192 13.249L13.395 15.0527L13.9997 14.2562L11.6239 12.4525L11.0192 13.249ZM13.6487 15.1521L13.8133 15.1682L13.9107 14.1729L13.7461 14.1568L13.6487 15.1521ZM14.1975 15.0413C15.8253 13.568 16.7452 11.4144 16.7452 8.9014H15.7452C15.7452 11.164 14.9221 13.0367 13.5265 14.2999L14.1975 15.0413Z" fill="#B7C2E8" mask="url(#path-1-inside-1_127_415)"/>
<path d="M11.3251 13.059L13.465 14.6835C12.213 15.7191 10.5438 16.3205 8.5615 16.3205C5.58433 16.3205 3.0076 14.6781 1.70797 12.2736L3.87307 10.6315C4.62118 12.4785 6.43796 13.7877 8.5615 13.7877C9.71543 13.7877 10.6245 13.4962 11.3251 13.059Z" fill="#2C3142" stroke="#B7C2E8" stroke-width="0.5"/>
<mask id="path-4-inside-2_127_415" fill="white">
<path d="M4.00888 10.2784C3.83993 9.7904 3.74215 9.26747 3.74215 8.72718C3.74215 8.18684 3.83993 7.66397 3.99999 7.17595L3.99552 7.07202L1.4941 5.16824L1.41226 5.20639C0.869838 6.26961 0.558594 7.46355 0.558594 8.72718C0.558594 9.99082 0.869838 11.1847 1.41226 12.2479L4.00888 10.2784Z"/>
</mask>
<path d="M4.00888 10.2784C3.83993 9.7904 3.74215 9.26747 3.74215 8.72718C3.74215 8.18684 3.83993 7.66397 3.99999 7.17595L3.99552 7.07202L1.4941 5.16824L1.41226 5.20639C0.869838 6.26961 0.558594 7.46355 0.558594 8.72718C0.558594 9.99082 0.869838 11.1847 1.41226 12.2479L4.00888 10.2784Z" fill="#2C3142"/>
<path d="M3.99999 7.17595L4.47509 7.33178L4.50344 7.24534L4.49953 7.15444L3.99999 7.17595ZM3.99552 7.07202L4.49506 7.05051L4.48497 6.81619L4.29833 6.67414L3.99552 7.07202ZM1.4941 5.16824L1.79692 4.77037L1.55659 4.58746L1.28285 4.71506L1.4941 5.16824ZM1.41226 5.20639L1.20101 4.75321L1.04507 4.8259L0.966875 4.97917L1.41226 5.20639ZM1.41226 12.2479L0.966875 12.4751L1.23839 13.0073L1.71442 12.6463L1.41226 12.2479ZM4.48137 10.1148C4.32897 9.67465 4.24215 9.20695 4.24215 8.72718H3.24215C3.24215 9.32799 3.35088 9.90614 3.5364 10.442L4.48137 10.1148ZM4.24215 8.72718C4.24215 8.24716 4.32905 7.77704 4.47509 7.33178L3.5249 7.02012C3.3508 7.55091 3.24215 8.12652 3.24215 8.72718H4.24215ZM4.49953 7.15444L4.49506 7.05051L3.49598 7.09353L3.50046 7.19746L4.49953 7.15444ZM4.29833 6.67414L1.79692 4.77037L1.19129 5.56612L3.6927 7.46989L4.29833 6.67414ZM1.28285 4.71506L1.20101 4.75321L1.62351 5.65958L1.70535 5.62143L1.28285 4.71506ZM0.966875 4.97917C0.390558 6.10882 0.0585938 7.38026 0.0585938 8.72718H1.05859C1.05859 7.54684 1.34912 6.4304 1.85765 5.43362L0.966875 4.97917ZM0.0585938 8.72718C0.0585938 10.0741 0.39056 11.3455 0.966875 12.4751L1.85765 12.0207C1.34912 11.0239 1.05859 9.90753 1.05859 8.72718H0.0585938ZM1.71442 12.6463L4.31104 10.6768L3.70672 9.88004L1.1101 11.8495L1.71442 12.6463Z" fill="#B7C2E8" mask="url(#path-4-inside-2_127_415)"/>
<mask id="path-6-inside-3_127_415" fill="white">
<path d="M8.56155 3.91664C10.0644 3.91664 11.0781 4.55281 11.6562 5.08445L13.9149 2.92318C12.5277 1.65954 10.7224 0.883926 8.56155 0.883926C5.43132 0.883926 2.72796 2.64429 1.41187 5.20641L3.99961 7.17596C4.64882 5.28487 6.44512 3.91664 8.56155 3.91664Z"/>
</mask>
<path d="M8.56155 3.91664C10.0644 3.91664 11.0781 4.55281 11.6562 5.08445L13.9149 2.92318C12.5277 1.65954 10.7224 0.883926 8.56155 0.883926C5.43132 0.883926 2.72796 2.64429 1.41187 5.20641L3.99961 7.17596C4.64882 5.28487 6.44512 3.91664 8.56155 3.91664Z" fill="#2C3142"/>
<path d="M11.6562 5.08445L11.3177 5.45246L11.6629 5.76999L12.0018 5.44571L11.6562 5.08445ZM13.9149 2.92318L14.2605 3.28444L14.6475 2.91419L14.2516 2.55354L13.9149 2.92318ZM1.41187 5.20641L0.967111 4.97795L0.775706 5.35057L1.10904 5.60427L1.41187 5.20641ZM3.99961 7.17596L3.69678 7.57383L4.24771 7.99315L4.47251 7.33832L3.99961 7.17596ZM8.56155 4.41664C9.9106 4.41664 10.8086 4.98429 11.3177 5.45246L11.9946 4.71643C11.3476 4.12133 10.2182 3.41664 8.56155 3.41664V4.41664ZM12.0018 5.44571L14.2605 3.28444L13.5692 2.56192L11.3105 4.72319L12.0018 5.44571ZM14.2516 2.55354C12.7751 1.20857 10.8507 0.383926 8.56155 0.383926V1.38393C10.5941 1.38393 12.2803 2.11051 13.5782 3.29281L14.2516 2.55354ZM8.56155 0.383926C5.24004 0.383926 2.36707 2.25257 0.967111 4.97795L1.85662 5.43486C3.08885 3.03602 5.6226 1.38393 8.56155 1.38393V0.383926ZM1.10904 5.60427L3.69678 7.57383L4.30243 6.7781L1.71469 4.80854L1.10904 5.60427ZM4.47251 7.33832C5.05482 5.64213 6.66609 4.41664 8.56155 4.41664V3.41664C6.22415 3.41664 4.24283 4.92761 3.5267 7.01361L4.47251 7.33832Z" fill="#B7C2E8" mask="url(#path-6-inside-3_127_415)"/>
</g>
<defs>
<clipPath id="clip0_127_415">
<rect width="16" height="16" fill="white" transform="translate(0.5 0.628326)"/>
</clipPath>
</defs>
</svg>
