<svg width="13" height="18" viewBox="0 0 13 18" fill="none" xmlns="http://www.w3.org/2000/svg">
<path d="M11.0031 7.60124V4.90906C11.0103 3.69091 10.5238 2.51962 9.6552 1.66547C8.81548 0.829349 7.71626 0.371643 6.55217 0.371643C6.53415 0.371643 6.51253 0.371643 6.49451 0.371643C4.01136 0.375247 1.99313 2.40789 1.99313 4.90906V7.60124C1.0561 7.71296 0.371338 8.49863 0.371338 9.45008V15.4976C0.371338 16.5247 1.19305 17.3716 2.22018 17.3716H10.7796C11.8068 17.3716 12.6285 16.5247 12.6285 15.4976V9.45008C12.6249 8.50223 11.9401 7.71296 11.0031 7.60124ZM2.71032 4.90906H2.71393C2.71393 2.80433 4.41141 1.08163 6.49811 1.08163H6.50172C7.49281 1.07802 8.44427 1.47086 9.14704 2.17003C9.87865 2.89443 10.2859 3.88193 10.2787 4.90906V7.60484H9.48582V4.90906C9.49303 4.09096 9.16867 3.30529 8.58842 2.72865C8.04062 2.18084 7.2982 1.8709 6.52334 1.8709H6.50172C4.84388 1.8709 3.5032 3.23321 3.5032 4.90546V7.60484H2.71032V4.90906ZM8.76862 4.90906V7.60484H4.2276V4.90906C4.2276 3.63325 5.24393 2.5953 6.50532 2.5953H6.52695C7.11079 2.5953 7.67301 2.82956 8.08747 3.24402C8.52716 3.68371 8.77583 4.28557 8.76862 4.90906ZM11.9401 15.5084C11.9401 16.1391 11.4284 16.6508 10.7977 16.6508H2.2346C1.6039 16.6508 1.09214 16.1391 1.09214 15.5084V9.4681C1.09214 8.83741 1.6039 8.32564 2.2346 8.32564H10.7977C11.4284 8.32564 11.9401 8.83741 11.9401 9.4681V15.5084Z" fill="#303545"/>
</svg>
