<svg width="65" height="64" viewBox="0 0 65 64" fill="none" xmlns="http://www.w3.org/2000/svg">
<path d="M32.5 0C14.8226 0 0.5 14.3226 0.5 32C0.5 49.6774 14.8226 64 32.5 64C50.1774 64 64.5 49.6774 64.5 32C64.5 14.3226 50.1774 0 32.5 0ZM39.8677 45.1742L28.4871 36.9032C28.0871 36.6065 27.8548 36.1419 27.8548 35.6516V13.9355C27.8548 13.0839 28.5516 12.3871 29.4032 12.3871H35.5968C36.4484 12.3871 37.1452 13.0839 37.1452 13.9355V31.7032L45.3387 37.6645C46.0355 38.1677 46.1774 39.1355 45.6742 39.8323L42.0355 44.8387C41.5323 45.5226 40.5645 45.6774 39.8677 45.1742Z" fill="url(#paint0_linear_518_1070)"/>
<defs>
<linearGradient id="paint0_linear_518_1070" x1="0.5" y1="32" x2="64.5" y2="32" gradientUnits="userSpaceOnUse">
<stop stop-color="#7683AF"/>
<stop offset="1" stop-color="#B7C2E8"/>
</linearGradient>
</defs>
</svg>
