<svg width="72" height="56" viewBox="0 0 72 56" fill="none" xmlns="http://www.w3.org/2000/svg">
<path d="M20 6H64C65.1 6 66 6.9 66 8V36C66 37.1 65.1 38 64 38H61.35L48.5125 18.3625C47.9625 17.5125 47.0125 17 46 17C44.9875 17 44.0375 17.5125 43.4875 18.3625L36.9625 28.3375L35.4125 26.225C34.85 25.45 33.95 25 32.9875 25C32.025 25 31.1375 25.45 30.5625 26.225L21.95 38H20C18.9 38 18 37.1 18 36V8C18 6.9 18.9 6 20 6ZM12 8V36C12 40.4125 15.5875 44 20 44H64C68.4125 44 72 40.4125 72 36V8C72 3.5875 68.4125 0 64 0H20C15.5875 0 12 3.5875 12 8ZM6 11C6 9.3375 4.6625 8 3 8C1.3375 8 0 9.3375 0 11V39C0 48.3875 7.6125 56 17 56H57C58.6625 56 60 54.6625 60 53C60 51.3375 58.6625 50 57 50H17C10.925 50 6 45.075 6 39V11ZM32 14C32 12.9391 31.5786 11.9217 30.8284 11.1716C30.0783 10.4214 29.0609 10 28 10C26.9391 10 25.9217 10.4214 25.1716 11.1716C24.4214 11.9217 24 12.9391 24 14C24 15.0609 24.4214 16.0783 25.1716 16.8284C25.9217 17.5786 26.9391 18 28 18C29.0609 18 30.0783 17.5786 30.8284 16.8284C31.5786 16.0783 32 15.0609 32 14Z" fill="#B7C2E8"/>
</svg>
