<svg width="60" height="48" viewBox="0 0 60 48" fill="none" xmlns="http://www.w3.org/2000/svg">
<path d="M0.88 24C0.88 16.6613 2.288 10.88 5.104 6.656C7.96267 2.432 12.5493 0.319996 18.864 0.319996C25.1787 0.319996 29.744 2.432 32.56 6.656C35.4187 10.88 36.848 16.6613 36.848 24C36.848 31.424 35.4187 37.248 32.56 41.472C29.744 45.696 25.1787 47.808 18.864 47.808C12.5493 47.808 7.96267 45.696 5.104 41.472C2.288 37.248 0.88 31.424 0.88 24ZM26.096 24C26.096 19.6907 25.6267 16.384 24.688 14.08C23.7493 11.7333 21.808 10.56 18.864 10.56C15.92 10.56 13.9787 11.7333 13.04 14.08C12.1013 16.384 11.632 19.6907 11.632 24C11.632 26.9013 11.8027 29.312 12.144 31.232C12.4853 33.1093 13.168 34.6453 14.192 35.84C15.2587 36.992 16.816 37.568 18.864 37.568C20.912 37.568 22.448 36.992 23.472 35.84C24.5387 34.6453 25.2427 33.1093 25.584 31.232C25.9253 29.312 26.096 26.9013 26.096 24ZM41.478 11.456V1.28H59.206V48H47.814V11.456H41.478Z" fill="#303545"/>
</svg>
