<svg width="75" height="48" viewBox="0 0 75 48" fill="none" xmlns="http://www.w3.org/2000/svg">
<path d="M0.88 24C0.88 16.6613 2.288 10.88 5.104 6.656C7.96267 2.432 12.5493 0.319996 18.864 0.319996C25.1787 0.319996 29.744 2.432 32.56 6.656C35.4187 10.88 36.848 16.6613 36.848 24C36.848 31.424 35.4187 37.248 32.56 41.472C29.744 45.696 25.1787 47.808 18.864 47.808C12.5493 47.808 7.96267 45.696 5.104 41.472C2.288 37.248 0.88 31.424 0.88 24ZM26.096 24C26.096 19.6907 25.6267 16.384 24.688 14.08C23.7493 11.7333 21.808 10.56 18.864 10.56C15.92 10.56 13.9787 11.7333 13.04 14.08C12.1013 16.384 11.632 19.6907 11.632 24C11.632 26.9013 11.8027 29.312 12.144 31.232C12.4853 33.1093 13.168 34.6453 14.192 35.84C15.2587 36.992 16.816 37.568 18.864 37.568C20.912 37.568 22.448 36.992 23.472 35.84C24.5387 34.6453 25.2427 33.1093 25.584 31.232C25.9253 29.312 26.096 26.9013 26.096 24ZM42.246 39.232C43.6967 38.08 44.358 37.5467 44.23 37.632C48.4113 34.176 51.6967 31.3387 54.086 29.12C56.518 26.9013 58.566 24.576 60.23 22.144C61.894 19.712 62.726 17.344 62.726 15.04C62.726 13.2907 62.3207 11.9253 61.51 10.944C60.6993 9.96266 59.4833 9.472 57.862 9.472C56.2407 9.472 54.9607 10.0907 54.022 11.328C53.126 12.5227 52.678 14.2293 52.678 16.448H42.118C42.2033 12.8213 42.9713 9.792 44.422 7.36C45.9153 4.928 47.8567 3.136 50.246 1.984C52.678 0.831997 55.366 0.255997 58.31 0.255997C63.3873 0.255997 67.206 1.55733 69.766 4.16C72.3687 6.76266 73.67 10.1547 73.67 14.336C73.67 18.9013 72.1127 23.1467 68.998 27.072C65.8833 30.9547 61.9153 34.752 57.094 38.464H74.374V47.36H42.246V39.232Z" fill="#303545"/>
</svg>
