<svg width="75" height="49" viewBox="0 0 75 49" fill="none" xmlns="http://www.w3.org/2000/svg">
<path d="M0.88 24C0.88 16.6613 2.288 10.88 5.104 6.656C7.96267 2.432 12.5493 0.319996 18.864 0.319996C25.1787 0.319996 29.744 2.432 32.56 6.656C35.4187 10.88 36.848 16.6613 36.848 24C36.848 31.424 35.4187 37.248 32.56 41.472C29.744 45.696 25.1787 47.808 18.864 47.808C12.5493 47.808 7.96267 45.696 5.104 41.472C2.288 37.248 0.88 31.424 0.88 24ZM26.096 24C26.096 19.6907 25.6267 16.384 24.688 14.08C23.7493 11.7333 21.808 10.56 18.864 10.56C15.92 10.56 13.9787 11.7333 13.04 14.08C12.1013 16.384 11.632 19.6907 11.632 24C11.632 26.9013 11.8027 29.312 12.144 31.232C12.4853 33.1093 13.168 34.6453 14.192 35.84C15.2587 36.992 16.816 37.568 18.864 37.568C20.912 37.568 22.448 36.992 23.472 35.84C24.5387 34.6453 25.2427 33.1093 25.584 31.232C25.9253 29.312 26.096 26.9013 26.096 24ZM43.014 14.464C43.1847 9.89866 44.678 6.37866 47.494 3.904C50.31 1.42933 54.1287 0.191998 58.95 0.191998C62.15 0.191998 64.8807 0.746665 67.142 1.856C69.446 2.96533 71.174 4.48 72.326 6.4C73.5207 8.32 74.118 10.4747 74.118 12.864C74.118 15.68 73.414 17.984 72.006 19.776C70.598 21.5253 68.9553 22.72 67.078 23.36V23.616C69.51 24.4267 71.43 25.7707 72.838 27.648C74.246 29.5253 74.95 31.936 74.95 34.88C74.95 37.5253 74.3313 39.872 73.094 41.92C71.8993 43.9253 70.1287 45.504 67.782 46.656C65.478 47.808 62.726 48.384 59.526 48.384C54.406 48.384 50.31 47.1253 47.238 44.608C44.2087 42.0907 42.6087 38.2933 42.438 33.216H53.062C53.1047 35.0933 53.638 36.5867 54.662 37.696C55.686 38.7627 57.1793 39.296 59.142 39.296C60.806 39.296 62.086 38.8267 62.982 37.888C63.9207 36.9067 64.39 35.6267 64.39 34.048C64.39 32 63.7287 30.528 62.406 29.632C61.126 28.6933 59.0567 28.224 56.198 28.224H54.15V19.328H56.198C58.374 19.328 60.1233 18.9653 61.446 18.24C62.8113 17.472 63.494 16.128 63.494 14.208C63.494 12.672 63.0673 11.4773 62.214 10.624C61.3607 9.77066 60.1873 9.344 58.694 9.344C57.0727 9.344 55.8567 9.83466 55.046 10.816C54.278 11.7973 53.83 13.0133 53.702 14.464H43.014Z" fill="#303545"/>
</svg>
