<svg width="52" height="49" viewBox="0 0 52 49" fill="none" xmlns="http://www.w3.org/2000/svg">
<path d="M28.8678 10.2533L27.3953 17.96C27.0853 19.5333 27.4987 21.16 28.4803 22.3866C29.462 23.6133 30.9087 24.3333 32.4587 24.3333H46.667V27.2133L40.0278 43H19.1287C18.6637 43 18.2503 42.5733 18.2503 42.0933V21.1866L28.8678 10.2533ZM31.167 0.333313L14.6078 17.4266C13.6262 18.44 13.0837 19.8 13.0837 21.2133V42.0933C13.0837 45.5333 15.7962 48.3333 19.1287 48.3333H40.0537C41.8878 48.3333 43.567 47.3466 44.497 45.7467L51.3945 29.3466C51.6787 28.68 51.8337 27.96 51.8337 27.2133V24.3333C51.8337 21.4 49.5087 19 46.667 19H32.4587L34.8353 6.59998C34.9645 6.01331 34.887 5.37331 34.6287 4.83998C34.0345 3.63998 33.2853 2.54665 32.3553 1.58665L31.167 0.333313ZM5.33366 19H0.166992V48.3333H5.33366C6.75449 48.3333 7.91699 47.1333 7.91699 45.6666V21.6666C7.91699 20.2 6.75449 19 5.33366 19Z" fill="white"/>
</svg>
