<svg width="20" height="19" viewBox="0 0 20 19" fill="none" xmlns="http://www.w3.org/2000/svg">
<path d="M18 2.5H14.83L13 0.5H7L5.17 2.5H2C0.9 2.5 0 3.4 0 4.5V16.5C0 17.6 0.9 18.5 2 18.5H18C19.1 18.5 20 17.6 20 16.5V4.5C20 3.4 19.1 2.5 18 2.5ZM18 16.5H2V4.5H6.05L7.88 2.5H12.12L13.95 4.5H18V16.5ZM10 5.5C7.24 5.5 5 7.74 5 10.5C5 13.26 7.24 15.5 10 15.5C12.76 15.5 15 13.26 15 10.5C15 7.74 12.76 5.5 10 5.5ZM10 13.5C8.35 13.5 7 12.15 7 10.5C7 8.85 8.35 7.5 10 7.5C11.65 7.5 13 8.85 13 10.5C13 12.15 11.65 13.5 10 13.5Z" fill="white"/>
</svg>
