<svg width="32" height="33" viewBox="0 0 32 33" fill="none" xmlns="http://www.w3.org/2000/svg">
<path d="M26.0013 13.5006C26.0013 16.3695 25.07 19.0197 23.5011 21.1698L31.414 29.0889C32.1953 29.8702 32.1953 31.139 31.414 31.9203C30.6327 32.7016 29.3639 32.7016 28.5826 31.9203L20.6698 24.0011C18.5197 25.5762 15.8695 26.5013 13.0006 26.5013C5.81903 26.5013 0 20.6822 0 13.5006C0 6.31903 5.81903 0.5 13.0006 0.5C20.1822 0.5 26.0013 6.31903 26.0013 13.5006ZM13.0006 22.5011C14.1826 22.5011 15.353 22.2683 16.445 21.816C17.5369 21.3636 18.5291 20.7007 19.3649 19.8649C20.2007 19.0291 20.8636 18.0369 21.316 16.945C21.7683 15.853 22.0011 14.6826 22.0011 13.5006C22.0011 12.3187 21.7683 11.1483 21.316 10.0563C20.8636 8.96433 20.2007 7.97213 19.3649 7.13636C18.5291 6.30059 17.5369 5.63763 16.445 5.18531C15.353 4.733 14.1826 4.5002 13.0006 4.5002C11.8187 4.5002 10.6483 4.733 9.55632 5.18531C8.46433 5.63763 7.47213 6.30059 6.63636 7.13636C5.80059 7.97213 5.13763 8.96433 4.68531 10.0563C4.233 11.1483 4.0002 12.3187 4.0002 13.5006C4.0002 14.6826 4.233 15.853 4.68531 16.945C5.13763 18.0369 5.80059 19.0291 6.63636 19.8649C7.47213 20.7007 8.46433 21.3636 9.55632 21.816C10.6483 22.2683 11.8187 22.5011 13.0006 22.5011Z" fill="#303545"/>
</svg>
