<?xml version="1.0" encoding="UTF-8"?>
<svg version="1.1" xmlns="http://www.w3.org/2000/svg" width="512" height="512">
<path d="M0 0 C30.35549151 14.52644448 65.39151406 15.59983511 97.09814453 4.57568359 C101.48477989 2.84214763 105.67038525 0.61608149 109.7487793 -1.74682617 C114.40955615 -4.32932277 117.06861271 -4.63971888 122.1875 -3.25 C125.9237401 -1.87695953 129.55386931 -0.31081457 133.1875 1.3125 C134.2077124 1.76431641 135.2279248 2.21613281 136.27905273 2.68164062 C171.02704724 18.24347441 171.02704724 18.24347441 177.1875 28.75 C177.78362311 33.36995409 177.91762864 36.36261258 175.125 40.1875 C171.54985636 43.30624232 169.91780935 43.91034947 165.1875 43.75 C160.5134687 41.94598792 156.62578379 39.39658066 152.44458008 36.65234375 C144.87430985 31.68754238 137.18426889 27.32494198 128.94433594 23.55859375 C127.43005081 22.86163539 125.93545149 22.1221922 124.4453125 21.375 C120.50157873 19.71992484 118.22532869 19.41631837 114.1015625 20.7421875 C111.73047605 21.78937213 109.40006309 22.86558635 107.06640625 23.98828125 C78.42457704 37.52765478 41.66510783 36.55888344 11.75 28.4375 C11.01136719 28.23809814 10.27273437 28.03869629 9.51171875 27.83325195 C5.92351556 26.79137319 2.76892938 25.6100902 -0.453125 23.70703125 C-5.14934513 21.03077418 -9.02385249 19.05010416 -14.42724609 20.40625 C-21.61177036 23.09936366 -28.19810924 26.90028646 -34.8125 30.75 C-36.39809189 31.62927992 -37.98521124 32.50581406 -39.57421875 33.37890625 C-54.69731064 41.83618643 -69.44486785 52.11586338 -81.55859375 64.57421875 C-83.8125 66.75 -83.8125 66.75 -85.8125 66.75 C-86.20308594 67.63945312 -86.20308594 67.63945312 -86.6015625 68.546875 C-87.89524167 70.90053646 -89.20139218 72.20663682 -91.1875 74 C-117.95616069 100.33379075 -131.21598055 137.55729478 -135.984375 174.00390625 C-136.16404396 175.34613728 -136.34421713 176.68830091 -136.52490234 178.03039551 C-136.9590354 181.26963996 -137.38813761 184.50946362 -137.8125 187.75 C-137.24173027 187.74886084 -136.67096053 187.74772168 -136.08289474 187.746548 C-102.25479616 187.67941445 -68.42671273 187.62794067 -34.59856206 187.59680401 C-30.53681795 187.59305189 -26.47507398 187.58916892 -22.41333008 187.58520508 C-21.60470965 187.58441815 -20.79608922 187.58363122 -19.96296514 187.58282044 C-6.86972378 187.56976635 6.22347807 187.54611249 19.316696 187.51854161 C32.75144476 187.49048749 46.18617283 187.47382373 59.62094969 187.46773452 C67.91099821 187.46361809 76.20093506 187.45061643 84.49094921 187.4262506 C90.17564648 187.41039333 95.860286 187.40559962 101.54500378 187.40949587 C104.82486485 187.41141744 108.10448958 187.406831 111.38432503 187.39238358 C114.94220969 187.37747824 118.49961483 187.38103973 122.05751038 187.38923645 C123.09156747 187.38049793 124.12562457 187.3717594 125.19101673 187.36275607 C130.9515099 187.39867518 135.13835682 187.88024772 140.1875 190.75 C142.27373141 193.87934711 142.55504564 194.99354287 142.6875 198.625 C142.76484375 199.88957031 142.76484375 199.88957031 142.84375 201.1796875 C142.05672908 204.26218609 140.7047477 205.72993089 138.23010993 207.68702161 C133.91044849 209.93498227 129.02324992 209.41255997 124.26663208 209.35127258 C123.05685758 209.35554471 121.84708309 209.35981683 120.60064876 209.36421841 C117.25019327 209.37102371 113.90120244 209.35542689 110.5509243 209.33032811 C106.93545473 209.30871489 103.32002956 209.31604413 99.70451355 209.31983948 C93.44300774 209.32245994 87.18176265 209.30678635 80.92032242 209.27865028 C71.86740204 209.23799707 62.8146076 209.22499122 53.76160584 209.21871033 C39.07342099 209.20776999 24.38537506 209.17450289 9.69726562 209.12719727 C-4.56997991 209.08129492 -18.83718771 209.04590632 -33.10449219 209.0246582 C-33.98407954 209.02334459 -34.8636669 209.02203097 -35.76990841 209.02067754 C-40.18258539 209.01415231 -44.59526263 209.00783378 -49.00794005 209.00161803 C-85.60955812 208.94979314 -122.21101824 208.86173497 -158.8125 208.75 C-158.84071842 204.69498919 -158.86091693 200.64001795 -158.8742981 196.58493042 C-158.87988791 195.2110189 -158.88751236 193.83711385 -158.89736938 192.46322632 C-159.23890167 143.5660712 -141.29246801 97.14858533 -108.8125 60.75 C-108.34279785 60.21858398 -107.8730957 59.68716797 -107.38916016 59.13964844 C-101.8766596 52.91858576 -96.27598564 47.00090542 -89.8125 41.75 C-89.2973584 41.32251465 -88.7822168 40.8950293 -88.25146484 40.45458984 C-67.54990602 23.28560126 -44.50509737 9.43835888 -19.8125 -1.25 C-19.10561035 -1.56179199 -18.3987207 -1.87358398 -17.67041016 -2.19482422 C-10.38060757 -5.20994247 -6.69979966 -3.34769508 0 0 Z " fill="#b7c2e8" transform="translate(202.8125,260.25)"/>
<path d="M0 0 C19.63495102 19.17698413 29.69098338 44.43943789 30.47900391 71.70385742 C30.78587912 99.47885389 19.3324247 124.74715341 0.29541016 144.68823242 C-18.70065439 163.73706382 -44.54040148 173.22365299 -71.19384766 173.53149414 C-100.11874606 173.2457711 -125.24164335 160.72782675 -145.51708984 140.50854492 C-164.13022006 120.41409292 -172.41611306 93.30435888 -171.43554688 66.25952148 C-169.74269434 38.56619026 -156.24668318 13.93114901 -136.07958984 -4.74926758 C-96.28096644 -38.13298129 -37.31908453 -35.31608281 0 0 Z M-127.73193359 16.50073242 C-143.43656874 32.98759078 -150.76776183 53.87339798 -150.51708984 76.50854492 C-149.25935462 98.0043833 -139.58465889 118.17503696 -123.51708984 132.50854492 C-105.99692804 146.94914035 -85.38496515 153.63618742 -62.85693359 152.28979492 C-42.15041743 149.86197341 -22.58375816 140.14852168 -9.22802734 123.94458008 C4.92254791 105.67231604 11.55112644 84.35357225 8.85791016 61.38354492 C4.98621554 39.24150052 -6.17352503 20.43172402 -24.32958984 7.13354492 C-56.46457082 -15.32434959 -100.07011138 -10.97275398 -127.73193359 16.50073242 Z " fill="#b7c2e8" transform="translate(326.51708984375,72.491455078125)"/>
<path d="M0 0 C12.72749723 9.90643419 20.80270379 23.84360356 23.34521484 39.81152344 C24.15866111 53.95297399 22.47920527 65.77756515 15.55224609 78.35058594 C14.12503486 80.80359903 14.12503486 80.80359903 14.34521484 83.81152344 C15.77347489 85.67794936 15.77347489 85.67794936 17.74169922 87.54858398 C18.48246704 88.28912521 19.22323486 89.02966644 19.9864502 89.79264832 C20.79578003 90.58649429 21.60510986 91.38034027 22.43896484 92.19824219 C23.26021851 93.01525101 24.08147217 93.83225983 24.9276123 94.67402649 C27.55987756 97.28945953 30.20236791 99.89428757 32.84521484 102.49902344 C34.62844866 104.26721638 36.41100976 106.03608804 38.19287109 107.80566406 C42.56920155 112.14886491 46.95397859 116.48339665 51.34521484 120.81152344 C49.99794224 123.60722507 48.74815251 125.65120147 46.52490234 127.82714844 C45.98994141 128.35566406 45.45498047 128.88417969 44.90380859 129.42871094 C44.07042969 130.23695313 44.07042969 130.23695313 43.22021484 131.06152344 C42.65689453 131.61582031 42.09357422 132.17011719 41.51318359 132.74121094 C40.12835457 134.10256829 38.7373828 135.45767203 37.34521484 136.81152344 C32.19699382 132.52154676 27.46325227 128.00062727 22.80224609 123.19042969 C21.38552217 121.74648748 19.96818688 120.3031449 18.55029297 118.86035156 C16.33888114 116.60545761 14.13159422 114.34705383 11.93432617 112.07836914 C9.79740728 109.87518186 7.64519401 107.68797192 5.48974609 105.50292969 C4.83238968 104.81662979 4.17503326 104.1303299 3.49775696 103.42323303 C2.57110481 102.49117287 2.57110481 102.49117287 1.62573242 101.5402832 C1.08725174 100.98768326 0.54877106 100.43508331 -0.00602722 99.86573792 C-1.62105117 98.58521163 -1.62105117 98.58521163 -3.70259094 99.07090759 C-7.102449 100.36073251 -10.33729059 101.97429702 -13.60791016 103.55761719 C-26.59271516 108.90136386 -43.7419833 108.96921126 -56.84619141 104.06152344 C-57.77302734 103.64902344 -58.69986328 103.23652344 -59.65478516 102.81152344 C-60.59193359 102.39902344 -61.52908203 101.98652344 -62.49462891 101.56152344 C-78.42158193 93.69856767 -87.94577589 80.27800471 -93.65478516 63.81152344 C-97.53761069 46.91800973 -94.86898055 29.37240291 -85.74853516 14.72558594 C-75.98683702 1.13934189 -62.88202472 -7.27714456 -46.60400391 -10.56738281 C-30.04917143 -13.17096181 -13.72752262 -9.85918857 0 0 Z M-62.65478516 20.81152344 C-63.21810547 21.33488281 -63.78142578 21.85824219 -64.36181641 22.39746094 C-71.98747131 30.31269767 -74.31699625 39.96578367 -74.19140625 50.63500977 C-73.9266749 56.61047144 -72.40921388 61.50111186 -69.65478516 66.81152344 C-63.45131129 61.68610366 -57.7979384 56.08383284 -52.12744141 50.38183594 C-51.12875499 49.38128057 -50.12984469 48.38094863 -49.13072205 47.38082886 C-46.52286552 44.76918463 -43.91802821 42.15454976 -41.31384277 39.53924561 C-38.64743279 36.86254021 -35.97813052 34.18872242 -33.30908203 31.51464844 C-28.08817414 26.28306946 -22.87045764 21.04832248 -17.65478516 15.81152344 C-22.28290407 10.87648012 -29.41752031 9.71688161 -36.02978516 9.37402344 C-46.36366533 9.8184914 -55.23817229 13.74091888 -62.65478516 20.81152344 Z M-5.79348755 32.7097168 C-6.67729095 33.59796143 -7.56109436 34.48620605 -8.47167969 35.40136719 C-8.95965027 35.88904572 -9.44762085 36.37672424 -9.95037842 36.87918091 C-11.5675682 38.4977678 -13.17755285 40.12333163 -14.78759766 41.74902344 C-15.90531576 42.87047031 -17.02347526 43.99147742 -18.14205933 45.11206055 C-21.08921172 48.06686008 -24.0303098 51.02761593 -26.97021484 53.98962402 C-29.96953234 57.0093767 -32.97449853 60.02349647 -35.97900391 63.03808594 C-41.87649506 68.95704606 -47.76760637 74.88230631 -53.65478516 80.81152344 C-49.07106325 85.72551351 -42.32002942 86.67742914 -35.77197266 86.91699219 C-24.20118761 86.2082404 -14.34195378 81.14359257 -6.32666016 72.86230469 C0.08602282 64.99628001 2.79675017 55.42125829 2.61083984 45.41308594 C2.0939473 40.35057952 0.62222823 35.3655502 -1.65478516 30.81152344 C-3.88207867 30.59025613 -3.88207867 30.59025613 -5.79348755 32.7097168 Z " fill="#b7c2e8" transform="translate(419.65478515625,332.1884765625)"/>
</svg>
